<svg width="136" height="136" viewBox="0 0 136 136" fill="none" xmlns="http://www.w3.org/2000/svg">
<path fill-rule="evenodd" clip-rule="evenodd" d="M67.6774 50.0322C58.2707 50.0322 50.6451 57.6578 50.6451 67.0645C50.6451 76.4711 58.2707 84.0968 67.6774 84.0968C77.0841 84.0968 84.7097 76.4711 84.7097 67.0645C84.7097 57.6578 77.0841 50.0322 67.6774 50.0322ZM48.5161 67.0645C48.5161 56.482 57.0949 47.9032 67.6774 47.9032C78.2599 47.9032 86.8387 56.482 86.8387 67.0645C86.8387 77.647 78.2599 86.2258 67.6774 86.2258C57.0949 86.2258 48.5161 77.647 48.5161 67.0645Z" fill="black"/>
<path fill-rule="evenodd" clip-rule="evenodd" d="M68.2096 2.13463C65.2845 2.13463 62.4793 3.29661 60.4109 5.36494C58.3426 7.43327 57.1806 10.2385 57.1806 13.1636V14.1918L57.1806 14.196C57.172 16.3504 56.5337 18.4552 55.3441 20.2514C54.1546 22.0476 52.4658 23.4568 50.4856 24.3055C50.3528 24.3624 50.2097 24.3918 50.0652 24.3918H49.8004C47.837 25.2098 45.6773 25.4442 43.5811 25.0641C41.4093 24.6704 39.4053 23.635 37.8274 22.0915L37.819 22.0833L37.4561 21.7204C36.4318 20.6949 35.215 19.881 33.8762 19.326C32.5373 18.771 31.1021 18.4853 29.6527 18.4853C28.2033 18.4853 26.7682 18.771 25.4293 19.326C24.0904 19.881 22.874 20.6945 21.8497 21.72L21.8489 21.7208C20.8235 22.7451 20.01 23.9615 19.455 25.3004C18.8999 26.6392 18.6143 28.0744 18.6143 29.5238C18.6143 30.9732 18.8999 32.4083 19.455 33.7472C20.01 35.0861 20.8235 36.3025 21.8489 37.3268L22.2205 37.6984C23.764 39.2763 24.7993 41.2804 25.1931 43.4522C25.5849 45.6129 25.3237 47.8412 24.4434 49.8524C23.676 51.9194 22.3075 53.7098 20.5138 54.9927C18.7108 56.2823 16.5617 56.9995 14.3457 57.0514L14.3207 57.0517H13.7764C10.8513 57.0517 8.04606 58.2136 5.97773 60.282C3.9094 62.3503 2.74743 65.1556 2.74743 68.0806C2.74743 71.0057 3.9094 73.8109 5.97773 75.8793C8.04606 77.9476 10.8513 79.1096 13.7764 79.1096H14.8088C16.9632 79.1182 19.068 79.7565 20.8642 80.9461C22.6588 82.1346 24.0671 83.8215 24.916 85.7994C25.8054 87.8173 26.0704 90.0553 25.6769 92.2252C25.2832 94.397 24.2478 96.4011 22.7043 97.979L22.6961 97.9874L22.3332 98.3502C21.3077 99.3745 20.4938 100.591 19.9388 101.93C19.3838 103.269 19.0981 104.704 19.0981 106.154C19.0981 107.603 19.3838 109.038 19.9388 110.377C20.4938 111.716 21.3073 112.932 22.3328 113.957L22.3336 113.957C23.3579 114.983 24.5743 115.796 25.9131 116.351C27.252 116.906 28.6872 117.192 30.1366 117.192C31.5859 117.192 33.0211 116.906 34.36 116.351C35.6989 115.796 36.9153 114.983 37.9396 113.957L38.3112 113.586C39.8891 112.042 41.8932 111.007 44.065 110.613C46.2257 110.221 48.454 110.483 50.4652 111.363C52.5322 112.13 54.3226 113.499 55.6055 115.293C56.895 117.096 57.6123 119.245 57.6642 121.461L57.6645 121.486V122.03C57.6645 124.955 58.8264 127.76 60.8948 129.829C62.9631 131.897 65.7684 133.059 68.6934 133.059C71.6185 133.059 74.4237 131.897 76.4921 129.829C78.5604 127.76 79.7224 124.955 79.7224 122.03V121.002L79.7224 120.998C79.731 118.843 80.3693 116.738 81.5589 114.942C82.7472 113.148 84.4339 111.739 86.4117 110.891C88.4297 110.001 90.6679 109.736 92.838 110.129C95.0098 110.523 97.0139 111.559 98.5918 113.102L98.6002 113.11L98.963 113.473C99.9873 114.499 101.204 115.312 102.543 115.868C103.882 116.423 105.317 116.708 106.766 116.708C108.216 116.708 109.651 116.423 110.99 115.868C112.329 115.312 113.545 114.499 114.569 113.474L114.57 113.473C115.596 112.448 116.409 111.232 116.964 109.893C117.519 108.554 117.805 107.119 117.805 105.67C117.805 104.22 117.519 102.785 116.964 101.446C116.409 100.107 115.596 98.8911 114.57 97.8668L114.199 97.4951C112.655 95.9173 111.62 93.9132 111.226 91.7414C110.833 89.5712 111.098 87.3331 111.987 85.315C112.836 83.3373 114.244 81.6506 116.039 80.4622C117.835 79.2727 119.94 78.6343 122.094 78.6257L122.098 78.6257L122.643 78.6257C125.568 78.6257 128.373 77.4637 130.441 75.3954C132.51 73.3271 133.672 70.5218 133.672 67.5968C133.672 64.6717 132.51 61.8665 130.441 59.7981C128.373 57.7298 125.568 56.5678 122.643 56.5678H121.615L121.61 56.5678C119.456 56.5592 117.351 55.9209 115.555 54.7313C113.759 53.5418 112.35 51.853 111.501 49.8728C111.444 49.74 111.415 49.5969 111.415 49.4524V49.1876C110.597 47.2242 110.362 45.0645 110.742 42.9683C111.136 40.7965 112.171 38.7925 113.715 37.2146L113.723 37.2062L114.086 36.8433C115.111 35.819 115.925 34.6022 116.48 33.2634C117.035 31.9245 117.321 30.4893 117.321 29.0399C117.321 27.5906 117.035 26.1554 116.48 24.8165C115.925 23.4776 115.112 22.2612 114.086 21.2369L114.086 21.2361C113.061 20.2107 111.845 19.3972 110.506 18.8422C109.167 18.2871 107.732 18.0015 106.283 18.0015C104.833 18.0015 103.398 18.2871 102.059 18.8422C100.72 19.3972 99.5039 20.2107 98.4796 21.2361L98.1079 21.6077C96.5301 23.1512 94.526 24.1865 92.3542 24.5803C90.1842 24.9737 87.9463 24.7087 85.9283 23.8194C83.9504 22.9705 82.2635 21.5622 81.075 19.7676C79.8855 17.9714 79.2471 15.8665 79.2385 13.7122L79.2385 13.7079V13.1636C79.2385 10.2385 78.0765 7.43327 76.0082 5.36494C73.9399 3.29661 71.1346 2.13463 68.2096 2.13463ZM58.9015 3.85552C61.3702 1.38687 64.7184 0 68.2096 0C71.7008 0 75.049 1.38687 77.5176 3.85552C79.9863 6.32417 81.3731 9.67238 81.3731 13.1636L81.3731 13.7037C81.3731 13.7043 81.3731 13.705 81.3731 13.7056C81.3805 15.443 81.8954 17.1404 82.8548 18.5889C83.8144 20.038 85.1769 21.1749 86.7744 21.8596L86.7849 21.8641C88.414 22.5831 90.2212 22.7976 91.9733 22.4799C93.7236 22.1625 95.3389 21.3287 96.6112 20.0856C96.6126 20.0843 96.6139 20.083 96.6152 20.0817L96.9693 19.7275C96.9692 19.7277 96.9695 19.7274 96.9693 19.7275C98.1918 18.5038 99.6438 17.5326 101.242 16.8703C102.84 16.2078 104.553 15.8668 106.283 15.8668C108.012 15.8668 109.725 16.2078 111.323 16.8703C112.921 17.5325 114.373 18.5032 115.595 19.7267C116.819 20.9492 117.79 22.401 118.452 23.9991C119.115 25.5971 119.456 27.31 119.456 29.0399C119.456 30.7698 119.115 32.4828 118.452 34.0808C117.79 35.6788 116.819 37.1306 115.595 38.3532L115.241 38.7073C115.239 38.7087 115.238 38.71 115.237 38.7114C113.994 39.9838 113.16 41.5989 112.843 43.3492C112.525 45.1013 112.739 46.9085 113.458 48.5376C113.518 48.6733 113.549 48.8201 113.549 48.9685V49.2268C114.241 50.7403 115.344 52.0312 116.734 52.9516C118.182 53.9109 119.879 54.4259 121.617 54.4332H122.643C126.134 54.4332 129.482 55.8201 131.951 58.2887C134.419 60.7574 135.806 64.1056 135.806 67.5968C135.806 71.088 134.419 74.4362 131.951 76.9048C129.482 79.3735 126.134 80.7604 122.643 80.7604L122.103 80.7603C122.102 80.7603 122.101 80.7604 122.101 80.7604C120.363 80.7677 118.666 81.2826 117.217 82.242C115.768 83.2016 114.631 84.5641 113.947 86.1616L113.942 86.1721C113.223 87.8012 113.009 89.6084 113.326 91.3605C113.644 93.1107 114.478 94.7258 115.72 95.9981C115.722 95.9995 115.723 96.001 115.725 96.0024L116.079 96.3565C116.079 96.3564 116.079 96.3567 116.079 96.3565C117.303 97.579 118.274 99.0311 118.936 100.629C119.599 102.227 119.94 103.94 119.94 105.67C119.94 107.4 119.599 109.113 118.936 110.711C118.274 112.308 117.303 113.76 116.079 114.983C114.857 116.206 113.405 117.177 111.807 117.839C110.209 118.502 108.496 118.843 106.766 118.843C105.036 118.843 103.324 118.502 101.726 117.839C100.128 117.177 98.676 116.206 97.4536 114.983C97.4535 114.982 97.4537 114.983 97.4536 114.983L97.0991 114.628C97.0976 114.627 97.0962 114.625 97.0947 114.624C95.8224 113.381 94.2073 112.547 92.4572 112.23C90.705 111.912 88.8979 112.127 87.2688 112.846L87.2583 112.85C85.6608 113.535 84.2983 114.672 83.3386 116.121C82.3793 117.569 81.8643 119.267 81.857 121.004C81.857 121.005 81.857 121.005 81.857 121.006L81.857 122.03C81.857 125.521 80.4701 128.869 78.0015 131.338C75.5328 133.807 72.1846 135.194 68.6934 135.194C65.2022 135.194 61.854 133.807 59.3854 131.338C56.9167 128.869 55.5298 125.521 55.5298 122.03V121.498C55.4857 119.715 54.9073 117.986 53.8693 116.534C52.829 115.08 51.3751 113.972 49.6968 113.355C49.6854 113.35 49.6741 113.346 49.6629 113.342C49.6533 113.338 49.6437 113.334 49.6342 113.329C48.0051 112.61 46.198 112.396 44.4458 112.714C42.6956 113.031 41.0804 113.865 39.8081 115.108C39.8067 115.109 39.8053 115.11 39.8039 115.112L39.4498 115.466C38.2273 116.69 36.7755 117.661 35.1774 118.323C33.5794 118.986 31.8665 119.327 30.1366 119.327C28.4067 119.327 26.6937 118.986 25.0957 118.323C23.4977 117.661 22.0459 116.69 20.8233 115.466C19.5998 114.244 18.6292 112.792 17.9669 111.194C17.3044 109.596 16.9635 107.884 16.9635 106.154C16.9635 104.424 17.3044 102.711 17.9669 101.113C18.6293 99.5149 19.6001 98.0632 20.8238 96.8408C20.8236 96.8409 20.8239 96.8407 20.8238 96.8408L21.1784 96.4863C21.1797 96.4849 21.181 96.4836 21.1824 96.4822C22.4253 95.2099 23.2592 93.5946 23.5766 91.8444C23.8943 90.0922 23.6798 88.2851 22.9608 86.656L22.9562 86.6455C22.2715 85.048 21.1347 83.6855 19.6856 82.7258C18.237 81.7665 16.5397 81.2515 14.8023 81.2442C14.8016 81.2442 14.801 81.2442 14.8003 81.2442L13.7764 81.2442C10.2852 81.2442 6.93697 79.8573 4.46832 77.3887C1.99967 74.92 0.612793 71.5718 0.612793 68.0806C0.612793 64.5894 1.99967 61.2412 4.46832 58.7726C6.93697 56.3039 10.2852 54.917 13.7764 54.917H14.3079C16.0914 54.8729 17.8207 54.2945 19.2719 53.2565C20.7265 52.2162 21.8344 50.7623 22.4517 49.084C22.4594 49.0629 22.4679 49.042 22.4769 49.0214C23.1959 47.3923 23.4104 45.5852 23.0927 43.833C22.7753 42.0828 21.9415 40.4675 20.6985 39.1952L20.3403 38.837C19.1164 37.6145 18.1455 36.1627 17.483 34.5646C16.8206 32.9666 16.4796 31.2537 16.4796 29.5238C16.4796 27.7939 16.8206 26.0809 17.483 24.4829C18.1455 22.8849 19.1164 21.4331 20.3403 20.2105C21.5627 18.987 23.0142 18.0164 24.6119 17.3541C26.2099 16.6917 27.9228 16.3507 29.6527 16.3507C31.3826 16.3507 33.0956 16.6917 34.6936 17.3541C36.2914 18.0165 37.7431 18.9873 38.9655 20.211C38.9654 20.2108 38.9657 20.2111 38.9655 20.211L39.3242 20.5697C40.5966 21.8126 42.2117 22.6464 43.962 22.9638C45.7141 23.2815 47.5213 23.067 49.1504 22.348C49.2861 22.2881 49.4329 22.2571 49.5813 22.2571H49.8396C51.3531 21.5652 52.644 20.4626 53.5644 19.0728C54.5237 17.6242 55.0387 15.9269 55.046 14.1895V13.1636C55.046 9.67238 56.4329 6.32417 58.9015 3.85552Z" fill="black"/>
</svg>
