<svg width="48" height="32" viewBox="0 0 48 32" fill="none" xmlns="http://www.w3.org/2000/svg">
<path d="M48 16C43.5 27 32.8366 32 24 32C15.1634 32 5 27.5 0 16C5.5 4 15.1634 0 24 0C32.8366 0 43.5 5 48 16Z" fill="white"/>
<path fill-rule="evenodd" clip-rule="evenodd" d="M24.3571 6.3125C21.6931 6.3125 19.1382 7.37077 17.2545 9.25451C15.3708 11.1382 14.3125 13.6931 14.3125 16.3571C14.3125 19.0211 15.3708 21.576 17.2545 23.4598C19.1382 25.3435 21.6931 26.4018 24.3571 26.4018C27.0212 26.4018 29.576 25.3435 31.4598 23.4598C33.3435 21.576 34.4018 19.0211 34.4018 16.3571C34.4018 13.6931 33.3435 11.1382 31.4598 9.25451C29.576 7.37077 27.0212 6.3125 24.3571 6.3125ZM24.3565 20.8772C26.8529 20.8772 28.8766 18.8535 28.8766 16.3571C28.8766 13.8608 26.8529 11.837 24.3565 11.837C21.8601 11.837 19.8364 13.8608 19.8364 16.3571C19.8364 18.8535 21.8601 20.8772 24.3565 20.8772Z" fill="#212133"/>
</svg>
